# xmcd
# Copyright (C) 1995-1998 Ti Kan
#
# Track frame offsets:
#       150
#       11922
#       25497
#       38317
#       49668
#       65602
#       78397
#       90751
#       103546
#       117530
#       130589
#       144091
#       162936
#       176025
#
# Disc length: 2542 seconds
#
# Revision: 0
# Processed by: cddbd v1.5.2PL0 Copyright (c) Steve Scherf et al.
# Submitted via: CD-Transfer v1.0
#
DISCID=a909ec0e
DTITLE=Junge Paldauer - 
DYEAR=1900
DGENRE=
TTITLE0=Auf Los Gehts Los
TTITLE1=Mach Es Einfach So Wie Ich
TTITLE2=Wenns Net Sein Soll
TTITLE3=Ich Schenk Dir Heut An Blumenstrauß
TTITLE4=Sommertraum
TTITLE5=Wolfis Buschenschenke
TTITLE6=Nur Der Mond Und Die Stern
TTITLE7=Hör Mir Zu
TTITLE8=Tanz Im Thermenland
TTITLE9=Waltraud Boarischer
TTITLE10=Die Oberkrainer Kommen
TTITLE11=Partykracher
TTITLE12=Es Strassert
TTITLE13=Rundum In Östrreich
EXTD=
EXTT0=
EXTT1=
EXTT2=
EXTT3=
EXTT4=
EXTT5=
EXTT6=
EXTT7=
EXTT8=
EXTT9=
EXTT10=
EXTT11=
EXTT12=
EXTT13=
PLAYORDER=
